<svg width="264" height="264" viewBox="0 0 264 264" fill="none" xmlns="http://www.w3.org/2000/svg">
<g filter="url(#filter0_d_44_84)">
<g filter="url(#filter1_d_44_84)">
<circle cx="132" cy="128" r="128" fill="#FFD338"/>
<circle cx="132" cy="128" r="127.5" stroke="#E4E4E4"/>
</g>
<path d="M139.408 194.536C133.52 194.536 129.424 193.128 127.12 190.312C124.816 187.496 123.664 182.888 123.664 176.488V102.76H137.488V168.616C137.488 175.4 138 179.816 139.024 181.864C140.048 183.784 142.992 184.744 147.856 184.744L148.24 193.192C145.296 194.088 142.352 194.536 139.408 194.536ZM122.32 72.616C122.32 66.6 125.264 63.592 131.152 63.592C136.528 63.592 139.216 66.536 139.216 72.424C139.216 78.184 136.4 81.064 130.768 81.064C125.136 81.064 122.32 78.248 122.32 72.616Z" fill="#1F1F1F"/>
</g>
<defs>
<filter id="filter0_d_44_84" x="0" y="0" width="264" height="264" filterUnits="userSpaceOnUse" color-interpolation-filters="sRGB">
<feFlood flood-opacity="0" result="BackgroundImageFix"/>
<feColorMatrix in="SourceAlpha" type="matrix" values="0 0 0 0 0 0 0 0 0 0 0 0 0 0 0 0 0 0 127 0" result="hardAlpha"/>
<feOffset dy="4"/>
<feGaussianBlur stdDeviation="2"/>
<feComposite in2="hardAlpha" operator="out"/>
<feColorMatrix type="matrix" values="0 0 0 0 1 0 0 0 0 1 0 0 0 0 1 0 0 0 0.25 0"/>
<feBlend mode="normal" in2="BackgroundImageFix" result="effect1_dropShadow_44_84"/>
<feBlend mode="normal" in="SourceGraphic" in2="effect1_dropShadow_44_84" result="shape"/>
</filter>
<filter id="filter1_d_44_84" x="0" y="0" width="264" height="264" filterUnits="userSpaceOnUse" color-interpolation-filters="sRGB">
<feFlood flood-opacity="0" result="BackgroundImageFix"/>
<feColorMatrix in="SourceAlpha" type="matrix" values="0 0 0 0 0 0 0 0 0 0 0 0 0 0 0 0 0 0 127 0" result="hardAlpha"/>
<feOffset dy="4"/>
<feGaussianBlur stdDeviation="2"/>
<feComposite in2="hardAlpha" operator="out"/>
<feColorMatrix type="matrix" values="0 0 0 0 0 0 0 0 0 0 0 0 0 0 0 0 0 0 0.25 0"/>
<feBlend mode="normal" in2="BackgroundImageFix" result="effect1_dropShadow_44_84"/>
<feBlend mode="normal" in="SourceGraphic" in2="effect1_dropShadow_44_84" result="shape"/>
</filter>
</defs>
</svg>
