<svg width="264" height="264" viewBox="0 0 264 264" fill="none" xmlns="http://www.w3.org/2000/svg">
<g filter="url(#filter0_d_38_87)">
<circle cx="132" cy="128" r="128" fill="#FFED49"/>
<circle cx="132" cy="128" r="127.5" stroke="#E4E4E4"/>
</g>
<path d="M97.216 178.128C96.928 178.896 96.784 179.472 96.784 179.856C96.784 180.144 96.88 180.576 97.072 181.152L79.936 178.416V177.84C79.264 177.84 78.928 177.264 78.928 176.112C78.928 175.344 79.024 174.576 79.216 173.808C79.408 173.04 79.552 172.416 79.648 171.936C80.416 167.328 80.992 162.96 81.376 158.832C81.856 154.704 82.24 150.336 82.528 145.728C82.528 136.704 82.288 128.544 81.808 121.248C81.424 113.856 81.232 106.608 81.232 99.504C81.232 93.456 81.52 88.032 82.096 83.232C82.672 78.432 82.96 73.44 82.96 68.256C82.96 64.608 82.816 60.912 82.528 57.168L85.84 56.592C86.128 56.592 86.416 56.784 86.704 57.168C86.992 57.456 87.232 58.128 87.424 59.184C87.616 60.144 87.76 61.536 87.856 63.36C88.048 65.088 88.144 67.344 88.144 70.128H89.872C90.064 63.6 90.496 58.416 91.168 54.576C91.936 50.736 92.848 48.816 93.904 48.816C94.864 48.816 95.68 49.872 96.352 51.984C97.024 54 97.552 56.736 97.936 60.192C98.416 63.648 98.752 67.584 98.944 72C99.232 76.416 99.376 80.976 99.376 85.68V103.824C101.296 101.712 103.696 99.792 106.576 98.064C109.552 96.336 112.816 95.472 116.368 95.472C121.552 95.472 125.92 96.768 129.472 99.36C133.12 101.856 136.144 104.976 138.544 108.72C140.944 112.368 142.768 116.304 144.016 120.528C145.36 124.656 146.32 128.304 146.896 131.472C147.376 133.392 147.808 135.552 148.192 137.952C148.672 140.352 149.056 142.8 149.344 145.296C149.632 147.792 149.824 150.288 149.92 152.784C150.112 155.28 150.208 157.584 150.208 159.696C150.208 159.984 150.16 160.8 150.064 162.144C150.064 163.392 149.968 164.736 149.776 166.176C149.584 167.616 149.296 168.912 148.912 170.064C148.528 171.216 148 171.792 147.328 171.792C147.136 171.792 146.992 171.744 146.896 171.648C147.088 169.44 147.232 167.28 147.328 165.168C147.424 163.056 147.472 160.896 147.472 158.688C147.472 153.6 147.136 148.56 146.464 143.568C145.888 138.96 145.024 134.304 143.872 129.6C144.832 133.824 145.552 138 146.032 142.128C146.608 146.544 146.896 150.96 146.896 155.376C146.896 160.656 146.608 165.792 146.032 170.784C145.072 171.168 144.352 172.08 143.872 173.52C143.488 174.96 143.104 176.496 142.72 178.128C142.336 179.76 141.808 181.2 141.136 182.448C140.56 183.792 139.6 184.464 138.256 184.464C137.776 184.464 137.344 184.128 136.96 183.456C136.672 182.88 136.384 182.112 136.096 181.152C135.808 180.288 135.568 179.328 135.376 178.272C135.28 177.12 135.232 176.064 135.232 175.104C135.232 174.432 135.328 173.856 135.52 173.376C135.712 172.896 135.904 172.32 136.096 171.648C136.48 169.344 136.72 167.04 136.816 164.736C137.008 162.336 137.104 159.888 137.104 157.392C137.104 154.512 136.96 151.296 136.672 147.744C136.384 144.192 135.904 140.592 135.232 136.944C134.56 133.296 133.696 129.792 132.64 126.432C131.584 122.976 130.24 119.952 128.608 117.36C127.072 114.672 125.248 112.56 123.136 111.024C121.024 109.392 118.624 108.576 115.936 108.576C113.824 108.576 111.904 109.488 110.176 111.312C108.544 113.04 107.056 115.296 105.712 118.08C104.464 120.768 103.36 123.792 102.4 127.152C101.536 130.416 100.768 133.536 100.096 136.512V137.232C100.672 134.256 101.392 131.232 102.256 128.16C103.216 125.088 104.368 122.256 105.712 119.664C107.152 116.976 108.832 114.672 110.752 112.752C112.672 110.832 114.928 109.584 117.52 109.008C119.824 109.008 121.888 109.824 123.712 111.456C125.536 113.088 127.12 115.248 128.464 117.936C129.904 120.528 131.104 123.504 132.064 126.864C133.12 130.128 133.936 133.392 134.512 136.656C135.184 139.92 135.664 143.04 135.952 146.016C136.24 148.896 136.384 151.296 136.384 153.216C136.384 156.288 136.24 159.36 135.952 162.432C135.664 165.408 135.28 168.336 134.8 171.216C134.32 167.088 133.984 162.768 133.792 158.256C133.6 153.744 133.264 149.28 132.784 144.864C132.304 140.448 131.584 136.128 130.624 131.904C129.664 127.584 128.176 123.552 126.16 119.808L127.456 119.376C126.592 117.744 125.776 116.544 125.008 115.776C124.336 115.008 123.664 114.432 122.992 114.048C122.416 113.664 121.744 113.328 120.976 113.04C120.208 112.656 119.344 112.032 118.384 111.168H116.224C112.96 111.168 110.032 114.24 107.44 120.384C104.848 126.528 102.448 135.168 100.24 146.304L99.808 155.376C100.384 151.44 101.104 146.976 101.968 141.984C102.928 136.896 104.032 132.144 105.28 127.728C106.624 123.216 108.16 119.472 109.888 116.496C111.712 113.424 113.824 111.888 116.224 111.888C117.28 111.888 118.528 112.224 119.968 112.896C121.408 113.568 122.896 114.912 124.432 116.928C123.088 115.392 121.744 114.24 120.4 113.472C119.056 112.704 117.856 112.32 116.8 112.32L115.792 112.464C113.872 112.464 112.192 113.664 110.752 116.064C109.312 118.464 107.968 121.584 106.72 125.424C105.568 129.168 104.56 133.488 103.696 138.384C102.832 143.184 102.016 148.032 101.248 152.928C100.48 157.728 99.76 162.384 99.088 166.896C98.512 171.312 97.888 175.056 97.216 178.128ZM94.336 180.432C94.912 180.24 95.248 179.952 95.344 179.568C95.536 179.184 95.728 178.992 95.92 178.992L96.928 171.36L94.624 178.56L94.192 179.424C92.56 179.328 90.976 179.136 89.44 178.848C88.096 178.656 86.656 178.464 85.12 178.272C83.68 177.984 82.384 177.744 81.232 177.552C80.944 176.688 80.8 176.064 80.8 175.68C80.8 175.584 80.8 175.488 80.8 175.392C80.896 175.296 80.944 175.2 80.944 175.104L79.936 174.96C80.128 176.496 80.272 177.408 80.368 177.696C80.56 177.888 80.8 178.08 81.088 178.272L94.336 180.432ZM129.184 102.96C127.264 101.616 125.2 100.56 122.992 99.792C120.784 98.928 118.48 98.496 116.08 98.496C112.24 98.496 108.928 99.552 106.144 101.664C103.36 103.68 101.104 105.936 99.376 108.432V108.864C100.24 107.616 101.2 106.416 102.256 105.264C103.408 104.016 104.656 102.96 106 102.096C107.344 101.136 108.88 100.368 110.608 99.792C112.336 99.216 114.304 98.928 116.512 98.928C120.832 98.928 124.672 100.176 128.032 102.672C131.488 105.168 134.464 108.24 136.96 111.888C135.904 110.256 134.752 108.672 133.504 107.136C132.352 105.6 130.912 104.208 129.184 102.96ZM143.584 128.592L143.872 129.6L143.584 128.592ZM167.405 174.96C169.805 173.52 172.013 171.648 174.029 169.344C176.045 167.04 178.157 164.784 180.365 162.576C179.021 163.44 177.821 164.4 176.765 165.456L173.741 168.48C172.685 169.536 171.533 170.592 170.285 171.648C169.133 172.608 167.741 173.472 166.109 174.24C165.629 173.76 165.245 173.376 164.957 173.088C164.765 172.8 164.669 172.416 164.669 171.936C164.669 171.456 164.717 171.168 164.813 171.072L169.421 166.464C169.421 166.848 169.661 167.184 170.141 167.472C170.621 167.664 171.005 167.76 171.293 167.76C171.773 166.32 172.493 165.168 173.453 164.304C174.413 163.44 175.421 162.672 176.477 162C177.533 161.232 178.541 160.416 179.501 159.552C180.461 158.688 181.181 157.536 181.661 156.096C181.565 156 181.517 155.904 181.517 155.808C181.325 155.616 181.181 155.52 181.085 155.52L170.285 165.6C170.957 164.832 172.061 163.536 173.597 161.712C175.133 159.888 176.717 158.016 178.349 156.096C179.981 154.176 181.469 152.496 182.813 151.056C184.253 149.616 185.165 148.896 185.549 148.896L185.693 149.04C186.461 149.328 187.517 149.616 188.861 149.904C190.301 150.096 191.357 150.192 192.029 150.192C192.701 150.192 193.469 150.048 194.333 149.76C194.333 150.336 194.621 151.008 195.197 151.776C195.773 152.544 196.397 153.312 197.069 154.08C197.741 154.848 198.365 155.616 198.941 156.384C199.517 157.056 199.805 157.584 199.805 157.968C199.805 158.64 199.565 158.976 199.085 158.976H198.653C198.653 159.84 198.701 161.376 198.797 163.584C198.989 165.696 199.085 168.144 199.085 170.928C199.085 172.464 198.605 173.808 197.645 174.96C196.685 176.112 195.581 177.12 194.333 177.984C193.085 178.848 191.789 179.568 190.445 180.144C189.197 180.72 188.237 181.152 187.565 181.44C186.989 181.44 186.749 181.728 186.845 182.304C186.941 182.976 186.749 183.312 186.269 183.312H185.549C185.261 183.312 184.829 183.168 184.253 182.88C183.677 182.688 183.053 182.4 182.381 182.016C182.477 181.728 182.957 181.008 183.821 179.856C184.781 178.608 185.789 177.312 186.845 175.968C187.901 174.528 188.909 173.232 189.869 172.08C190.829 170.832 191.453 170.064 191.741 169.776C191.261 170.064 190.493 170.784 189.437 171.936C188.381 172.992 187.277 174.192 186.125 175.536C185.069 176.784 184.013 177.984 182.957 179.136C181.997 180.192 181.373 180.864 181.085 181.152C179.837 180.48 178.973 180.144 178.493 180.144L177.773 180.72C176.717 180.72 175.565 180.48 174.317 180C173.165 179.616 172.061 179.136 171.005 178.56C170.045 177.984 169.181 177.408 168.413 176.832C167.741 176.256 167.405 175.824 167.405 175.536V174.96Z" fill="black"/>
<circle cx="132" cy="128" r="120" stroke="#272727" stroke-width="3"/>
<defs>
<filter id="filter0_d_38_87" x="0" y="0" width="264" height="264" filterUnits="userSpaceOnUse" color-interpolation-filters="sRGB">
<feFlood flood-opacity="0" result="BackgroundImageFix"/>
<feColorMatrix in="SourceAlpha" type="matrix" values="0 0 0 0 0 0 0 0 0 0 0 0 0 0 0 0 0 0 127 0" result="hardAlpha"/>
<feOffset dy="4"/>
<feGaussianBlur stdDeviation="2"/>
<feComposite in2="hardAlpha" operator="out"/>
<feColorMatrix type="matrix" values="0 0 0 0 0 0 0 0 0 0 0 0 0 0 0 0 0 0 0.25 0"/>
<feBlend mode="normal" in2="BackgroundImageFix" result="effect1_dropShadow_38_87"/>
<feBlend mode="normal" in="SourceGraphic" in2="effect1_dropShadow_38_87" result="shape"/>
</filter>
</defs>
</svg>
