<svg width="264" height="264" viewBox="0 0 264 264" fill="none" xmlns="http://www.w3.org/2000/svg">
<g filter="url(#filter0_d_38_87)">
<circle cx="132" cy="128" r="128" fill="#49FFB2"/>
<circle cx="132" cy="128" r="127.5" stroke="#E4E4E4"/>
</g>
<path d="M180.997 119.357C180.997 134.52 178.798 147.353 174.4 157.855C170.068 168.358 162.913 176.333 152.935 181.782C159.368 183.029 164.816 184.899 169.28 187.394C173.744 189.954 177.518 193.367 180.603 197.634C183.754 201.901 186.445 207.349 188.677 213.978L170.658 221.068C167.77 213.65 164.587 207.611 161.108 202.951C157.694 198.356 153.395 194.844 148.209 192.415C143.089 190.052 136.722 188.871 129.108 188.871C118.868 188.871 110.137 186.048 102.917 180.403C95.6964 174.692 90.2154 166.651 86.4738 156.28C82.7979 145.843 80.96 133.601 80.96 119.554C80.96 105.638 82.8636 93.3959 86.6708 82.8277C90.4779 72.2595 96.1231 64.0215 103.606 58.1138C111.155 52.2062 120.279 49.2523 130.978 49.2523C141.744 49.2523 150.868 52.1405 158.351 57.9169C165.834 63.6933 171.479 71.8656 175.286 82.4338C179.093 92.9364 180.997 105.244 180.997 119.357ZM163.274 119.357C163.274 100.846 160.681 86.9303 155.495 77.6092C150.31 68.2226 142.137 63.5292 130.978 63.5292C119.819 63.5292 111.647 68.2226 106.462 77.6092C101.276 86.9959 98.6831 100.977 98.6831 119.554C98.6831 137.868 101.309 151.685 106.56 161.006C111.877 170.262 120.016 174.889 130.978 174.889C142.203 174.889 150.375 170.262 155.495 161.006C160.681 151.685 163.274 137.802 163.274 119.357Z" fill="#1F1F1F"/>
<defs>
<filter id="filter0_d_38_87" x="0" y="0" width="264" height="264" filterUnits="userSpaceOnUse" color-interpolation-filters="sRGB">
<feFlood flood-opacity="0" result="BackgroundImageFix"/>
<feColorMatrix in="SourceAlpha" type="matrix" values="0 0 0 0 0 0 0 0 0 0 0 0 0 0 0 0 0 0 127 0" result="hardAlpha"/>
<feOffset dy="4"/>
<feGaussianBlur stdDeviation="2"/>
<feComposite in2="hardAlpha" operator="out"/>
<feColorMatrix type="matrix" values="0 0 0 0 0 0 0 0 0 0 0 0 0 0 0 0 0 0 0.25 0"/>
<feBlend mode="normal" in2="BackgroundImageFix" result="effect1_dropShadow_38_87"/>
<feBlend mode="normal" in="SourceGraphic" in2="effect1_dropShadow_38_87" result="shape"/>
</filter>
</defs>
</svg>
